<svg id="visual" viewBox="0 0 960 540" width="960" height="540" xmlns="http://www.w3.org/2000/svg" xmlns:xlink="http://www.w3.org/1999/xlink" version="1.1"><rect x="0" y="0" width="960" height="540" fill="#ee817c"></rect><g fill="#db7976"><circle r="79" cx="443" cy="17"></circle><circle r="25" cx="336" cy="393"></circle><circle r="47" cx="758" cy="71"></circle><circle r="50" cx="671" cy="505"></circle><circle r="52" cx="601" cy="186"></circle><circle r="66" cx="382" cy="167"></circle><circle r="75" cx="755" cy="244"></circle><circle r="47" cx="859" cy="522"></circle><circle r="46" cx="133" cy="531"></circle><circle r="34" cx="191" cy="194"></circle><circle r="37" cx="28" cy="36"></circle><circle r="77" cx="955" cy="242"></circle><circle r="45" cx="510" cy="414"></circle><circle r="56" cx="955" cy="10"></circle><circle r="59" cx="47" cy="387"></circle><circle r="29" cx="248" cy="18"></circle><circle r="40" cx="604" cy="11"></circle><circle r="66" cx="7" cy="222"></circle></g></svg>