<svg id="visual" viewBox="0 0 900 600" width="900" height="600" xmlns="http://www.w3.org/2000/svg" xmlns:xlink="http://www.w3.org/1999/xlink" version="1.1"><rect x="0" y="0" width="900" height="600" fill="#f7f7fe"></rect><defs><linearGradient id="grad1_0" x1="33.3%" y1="0%" x2="100%" y2="100%"><stop offset="20%" stop-color="#8284df" stop-opacity="1"></stop><stop offset="80%" stop-color="#8284df" stop-opacity="1"></stop></linearGradient></defs><defs><linearGradient id="grad1_1" x1="33.3%" y1="0%" x2="100%" y2="100%"><stop offset="20%" stop-color="#8284df" stop-opacity="1"></stop><stop offset="80%" stop-color="#9394e4" stop-opacity="1"></stop></linearGradient></defs><defs><linearGradient id="grad1_2" x1="33.3%" y1="0%" x2="100%" y2="100%"><stop offset="20%" stop-color="#a4a4e9" stop-opacity="1"></stop><stop offset="80%" stop-color="#9394e4" stop-opacity="1"></stop></linearGradient></defs><defs><linearGradient id="grad1_3" x1="33.3%" y1="0%" x2="100%" y2="100%"><stop offset="20%" stop-color="#a4a4e9" stop-opacity="1"></stop><stop offset="80%" stop-color="#b4b4ee" stop-opacity="1"></stop></linearGradient></defs><defs><linearGradient id="grad1_4" x1="33.3%" y1="0%" x2="100%" y2="100%"><stop offset="20%" stop-color="#c5c5f2" stop-opacity="1"></stop><stop offset="80%" stop-color="#b4b4ee" stop-opacity="1"></stop></linearGradient></defs><defs><linearGradient id="grad1_5" x1="33.3%" y1="0%" x2="100%" y2="100%"><stop offset="20%" stop-color="#c5c5f2" stop-opacity="1"></stop><stop offset="80%" stop-color="#d5d5f6" stop-opacity="1"></stop></linearGradient></defs><defs><linearGradient id="grad1_6" x1="33.3%" y1="0%" x2="100%" y2="100%"><stop offset="20%" stop-color="#e6e6fa" stop-opacity="1"></stop><stop offset="80%" stop-color="#d5d5f6" stop-opacity="1"></stop></linearGradient></defs><defs><linearGradient id="grad1_7" x1="33.3%" y1="0%" x2="100%" y2="100%"><stop offset="20%" stop-color="#e6e6fa" stop-opacity="1"></stop><stop offset="80%" stop-color="#f7f7fe" stop-opacity="1"></stop></linearGradient></defs><defs><linearGradient id="grad2_0" x1="0%" y1="0%" x2="66.7%" y2="100%"><stop offset="20%" stop-color="#8284df" stop-opacity="1"></stop><stop offset="80%" stop-color="#8284df" stop-opacity="1"></stop></linearGradient></defs><defs><linearGradient id="grad2_1" x1="0%" y1="0%" x2="66.7%" y2="100%"><stop offset="20%" stop-color="#9394e4" stop-opacity="1"></stop><stop offset="80%" stop-color="#8284df" stop-opacity="1"></stop></linearGradient></defs><defs><linearGradient id="grad2_2" x1="0%" y1="0%" x2="66.7%" y2="100%"><stop offset="20%" stop-color="#9394e4" stop-opacity="1"></stop><stop offset="80%" stop-color="#a4a4e9" stop-opacity="1"></stop></linearGradient></defs><defs><linearGradient id="grad2_3" x1="0%" y1="0%" x2="66.7%" y2="100%"><stop offset="20%" stop-color="#b4b4ee" stop-opacity="1"></stop><stop offset="80%" stop-color="#a4a4e9" stop-opacity="1"></stop></linearGradient></defs><defs><linearGradient id="grad2_4" x1="0%" y1="0%" x2="66.7%" y2="100%"><stop offset="20%" stop-color="#b4b4ee" stop-opacity="1"></stop><stop offset="80%" stop-color="#c5c5f2" stop-opacity="1"></stop></linearGradient></defs><defs><linearGradient id="grad2_5" x1="0%" y1="0%" x2="66.7%" y2="100%"><stop offset="20%" stop-color="#d5d5f6" stop-opacity="1"></stop><stop offset="80%" stop-color="#c5c5f2" stop-opacity="1"></stop></linearGradient></defs><defs><linearGradient id="grad2_6" x1="0%" y1="0%" x2="66.7%" y2="100%"><stop offset="20%" stop-color="#d5d5f6" stop-opacity="1"></stop><stop offset="80%" stop-color="#e6e6fa" stop-opacity="1"></stop></linearGradient></defs><defs><linearGradient id="grad2_7" x1="0%" y1="0%" x2="66.7%" y2="100%"><stop offset="20%" stop-color="#f7f7fe" stop-opacity="1"></stop><stop offset="80%" stop-color="#e6e6fa" stop-opacity="1"></stop></linearGradient></defs><g transform="translate(900, 0)"><path d="M0 270.4C-16.5 265.1 -32.9 259.7 -51.5 258.9C-70.1 258.1 -90.8 261.9 -103.5 249.8C-116.2 237.8 -120.8 210 -129.4 193.7C-138.1 177.5 -150.8 172.8 -166.2 166.2C-181.6 159.6 -199.7 151.2 -203.7 136.1C-207.7 121.1 -197.5 99.4 -205.1 85C-212.7 70.5 -238.2 63.1 -252.1 50.1C-265.9 37.2 -268.2 18.6 -270.4 0L0 0Z" fill="#efeffc"></path><path d="M0 236.6C-14.4 231.9 -28.8 227.3 -45.1 226.6C-61.3 225.9 -79.5 229.1 -90.5 218.6C-101.6 208.1 -105.7 183.7 -113.3 169.5C-120.8 155.3 -131.9 151.2 -145.4 145.4C-158.9 139.6 -174.8 132.3 -178.2 119.1C-181.7 105.9 -172.8 87 -179.5 74.3C-186.1 61.7 -208.4 55.2 -220.6 43.9C-232.7 32.5 -234.6 16.3 -236.6 0L0 0Z" fill="#dedef8"></path><path d="M0 202.8C-12.3 198.8 -24.7 194.8 -38.6 194.2C-52.6 193.6 -68.1 196.4 -77.6 187.4C-87.1 178.3 -90.6 157.5 -97.1 145.3C-103.6 133.1 -113.1 129.6 -124.6 124.6C-136.2 119.7 -149.8 113.4 -152.8 102.1C-155.8 90.8 -148.1 74.6 -153.8 63.7C-159.5 52.8 -178.7 47.3 -189 37.6C-199.4 27.9 -201.1 13.9 -202.8 0L0 0Z" fill="#cdcdf4"></path><path d="M0 169C-10.3 165.7 -20.6 162.3 -32.2 161.8C-43.8 161.3 -56.8 163.7 -64.7 156.1C-72.6 148.6 -75.5 131.2 -80.9 121.1C-86.3 110.9 -94.2 108 -103.9 103.9C-113.5 99.7 -124.8 94.5 -127.3 85.1C-129.8 75.7 -123.4 62.2 -128.2 53.1C-133 44 -148.9 39.4 -157.5 31.3C-166.2 23.2 -167.6 11.6 -169 0L0 0Z" fill="#bdbcf0"></path><path d="M0 135.2C-8.2 132.5 -16.5 129.9 -25.8 129.5C-35 129.1 -45.4 130.9 -51.7 124.9C-58.1 118.9 -60.4 105 -64.7 96.9C-69 88.7 -75.4 86.4 -83.1 83.1C-90.8 79.8 -99.9 75.6 -101.9 68.1C-103.8 60.5 -98.7 49.7 -102.6 42.5C-106.4 35.2 -119.1 31.6 -126 25.1C-133 18.6 -134.1 9.3 -135.2 0L0 0Z" fill="#acaceb"></path><path d="M0 101.4C-6.2 99.4 -12.3 97.4 -19.3 97.1C-26.3 96.8 -34.1 98.2 -38.8 93.7C-43.6 89.2 -45.3 78.7 -48.5 72.6C-51.8 66.6 -56.5 64.8 -62.3 62.3C-68.1 59.8 -74.9 56.7 -76.4 51C-77.9 45.4 -74.1 37.3 -76.9 31.9C-79.8 26.4 -89.3 23.7 -94.5 18.8C-99.7 13.9 -100.6 7 -101.4 0L0 0Z" fill="#9b9ce7"></path><path d="M0 67.6C-4.1 66.3 -8.2 64.9 -12.9 64.7C-17.5 64.5 -22.7 65.5 -25.9 62.5C-29 59.4 -30.2 52.5 -32.4 48.4C-34.5 44.4 -37.7 43.2 -41.5 41.5C-45.4 39.9 -49.9 37.8 -50.9 34C-51.9 30.3 -49.4 24.9 -51.3 21.2C-53.2 17.6 -59.6 15.8 -63 12.5C-66.5 9.3 -67 4.6 -67.6 0L0 0Z" fill="#8b8ce2"></path><path d="M0 33.8C-2.1 33.1 -4.1 32.5 -6.4 32.4C-8.8 32.3 -11.4 32.7 -12.9 31.2C-14.5 29.7 -15.1 26.2 -16.2 24.2C-17.3 22.2 -18.8 21.6 -20.8 20.8C-22.7 19.9 -25 18.9 -25.5 17C-26 15.1 -24.7 12.4 -25.6 10.6C-26.6 8.8 -29.8 7.9 -31.5 6.3C-33.2 4.6 -33.5 2.3 -33.8 0L0 0Z" fill="#8284df"></path></g><g transform="translate(0, 600)"><path d="M0 -270.4C14.5 -251.9 29.1 -233.3 45.1 -226.6C61.1 -219.8 78.5 -225 90.3 -218C102.1 -211.1 108.4 -192.2 125 -187.1C141.6 -182 168.6 -190.8 183.8 -183.8C199.1 -176.9 202.6 -154.1 200.4 -133.9C198.2 -113.7 190.2 -96.2 203.3 -84.2C216.3 -72.2 250.5 -65.9 265.2 -52.8C279.9 -39.7 275.2 -19.8 270.4 0L0 0Z" fill="#efeffc"></path><path d="M0 -236.6C12.7 -220.4 25.4 -204.1 39.4 -198.2C53.4 -192.4 68.7 -196.8 79 -190.8C89.4 -184.7 94.8 -168.1 109.4 -163.7C123.9 -159.3 147.5 -167 160.9 -160.9C174.2 -154.8 177.3 -134.8 175.3 -117.2C173.4 -99.5 166.4 -84.1 177.8 -73.7C189.3 -63.2 219.2 -57.6 232.1 -46.2C244.9 -34.7 240.8 -17.3 236.6 0L0 0Z" fill="#dedef8"></path><path d="M0 -202.8C10.9 -188.9 21.8 -175 33.8 -169.9C45.8 -164.9 58.9 -168.7 67.7 -163.5C76.6 -158.3 81.3 -144.1 93.8 -140.3C106.2 -136.5 126.4 -143.1 137.9 -137.9C149.3 -132.6 152 -115.6 150.3 -100.4C148.6 -85.3 142.6 -72.1 152.4 -63.1C162.3 -54.2 187.9 -49.4 198.9 -39.6C209.9 -29.7 206.4 -14.9 202.8 0L0 0Z" fill="#cdcdf4"></path><path d="M0 -169C9.1 -157.4 18.2 -145.8 28.2 -141.6C38.2 -137.4 49 -140.6 56.4 -136.3C63.8 -131.9 67.7 -120.1 78.1 -116.9C88.5 -113.8 105.4 -119.3 114.9 -114.9C124.4 -110.5 126.6 -96.3 125.2 -83.7C123.8 -71.1 118.9 -60.1 127 -52.6C135.2 -45.1 156.6 -41.2 165.8 -33C175 -24.8 172 -12.4 169 0L0 0Z" fill="#bdbcf0"></path><path d="M0 -135.2C7.3 -125.9 14.5 -116.6 22.5 -113.3C30.5 -109.9 39.2 -112.5 45.2 -109C51.1 -105.6 54.2 -96.1 62.5 -93.5C70.8 -91 84.3 -95.4 91.9 -91.9C99.5 -88.4 101.3 -77 100.2 -66.9C99.1 -56.9 95.1 -48.1 101.6 -42.1C108.2 -36.1 125.3 -32.9 132.6 -26.4C140 -19.8 137.6 -9.9 135.2 0L0 0Z" fill="#acaceb"></path><path d="M0 -101.4C5.5 -94.4 10.9 -87.5 16.9 -85C22.9 -82.4 29.4 -84.4 33.9 -81.8C38.3 -79.2 40.6 -72.1 46.9 -70.2C53.1 -68.3 63.2 -71.6 68.9 -68.9C74.7 -66.3 76 -57.8 75.1 -50.2C74.3 -42.6 71.3 -36.1 76.2 -31.6C81.1 -27.1 93.9 -24.7 99.5 -19.8C105 -14.9 103.2 -7.4 101.4 0L0 0Z" fill="#9b9ce7"></path><path d="M0 -67.6C3.6 -63 7.3 -58.3 11.3 -56.6C15.3 -55 19.6 -56.2 22.6 -54.5C25.5 -52.8 27.1 -48 31.3 -46.8C35.4 -45.5 42.1 -47.7 46 -46C49.8 -44.2 50.7 -38.5 50.1 -33.5C49.5 -28.4 47.5 -24 50.8 -21C54.1 -18.1 62.6 -16.5 66.3 -13.2C70 -9.9 68.8 -5 67.6 0L0 0Z" fill="#8b8ce2"></path><path d="M0 -33.8C1.8 -31.5 3.6 -29.2 5.6 -28.3C7.6 -27.5 9.8 -28.1 11.3 -27.3C12.8 -26.4 13.5 -24 15.6 -23.4C17.7 -22.8 21.1 -23.9 23 -23C24.9 -22.1 25.3 -19.3 25 -16.7C24.8 -14.2 23.8 -12 25.4 -10.5C27 -9 31.3 -8.2 33.2 -6.6C35 -5 34.4 -2.5 33.8 0L0 0Z" fill="#8284df"></path></g></svg>